<?xml version="1.0" standalone="no"?>
<!DOCTYPE svg PUBLIC "-//W3C//DTD SVG 20010904//EN"
 "http://www.w3.org/TR/2001/REC-SVG-20010904/DTD/svg10.dtd">
<svg version="1.0" xmlns="http://www.w3.org/2000/svg"
 width="626.000000pt" height="626.000000pt" viewBox="0 0 626.000000 626.000000"
 preserveAspectRatio="xMidYMid meet">

<g transform="translate(0.000000,626.000000) scale(0.100000,-0.100000)"
fill="#000000" stroke="none">
<path d="M1880 5516 l-245 -21 17 -214 c10 -118 19 -216 21 -218 5 -5 575 42
580 47 3 4 -27 397 -33 428 -1 5 -108 -2 -340 -22z m324 -13 c9 -33 30 -363
23 -369 -8 -8 -524 -50 -531 -44 -5 6 -39 380 -34 385 3 4 440 42 500 44 27 1
38 -4 42 -16z"/>
<path d="M2690 5451 c-113 -35 -189 -137 -190 -255 0 -81 17 -129 64 -183 130
-147 361 -117 452 59 26 50 30 146 9 209 -23 69 -92 139 -160 162 -50 18 -131
21 -175 8z m207 -42 c89 -55 136 -150 123 -250 -19 -136 -117 -223 -250 -223
-234 0 -345 280 -172 436 55 49 77 60 142 67 62 8 110 -2 157 -30z"/>
<path d="M1202 5054 c-98 -41 -105 -43 -132 -29 -26 13 -33 12 -88 -12 -48
-20 -62 -31 -67 -53 -4 -19 -19 -33 -50 -48 -25 -12 -45 -26 -45 -30 0 -5 38
-88 85 -185 73 -152 88 -177 107 -177 15 0 19 3 11 8 -18 11 -115 318 -111
350 3 25 18 33 220 117 120 50 218 93 218 98 0 16 -50 3 -148 -39z"/>
<path d="M3394 5008 c-8 -12 -18 -5 123 -82 121 -66 143 -74 143 -57 0 14
-260 150 -266 139z"/>
<path d="M3366 4961 c-6 -10 20 -26 167 -106 57 -30 92 -44 98 -38 6 6 -36 35
-118 79 -153 83 -140 77 -147 65z"/>
<path d="M3342 4909 c5 -15 250 -149 260 -143 16 10 -3 23 -126 88 -129 69
-140 73 -134 55z"/>
<path d="M3317 4863 c-7 -6 96 -69 206 -124 40 -21 57 -25 57 -16 0 8 -56 44
-124 80 -133 72 -129 70 -139 60z"/>
<path d="M3290 4811 c0 -15 259 -150 266 -139 8 12 16 7 -122 82 -119 65 -144
75 -144 57z"/>
<path d="M3266 4771 c-8 -13 5 -21 135 -90 121 -64 129 -67 129 -52 0 17 -256
155 -264 142z"/>
<path d="M3236 4721 c-8 -13 256 -153 267 -142 7 7 -238 151 -257 151 -3 0 -7
-4 -10 -9z"/>
<path d="M3210 4671 c0 -16 164 -101 174 -91 12 12 17 8 -77 58 -81 43 -97 49
-97 33z"/>
<path d="M4495 4281 c-33 -20 -49 -37 -59 -65 -5 -15 -4 -17 7 -7 12 9 13 3 9
-37 -5 -61 16 -113 37 -88 10 11 10 16 2 16 -20 0 7 39 42 60 44 27 84 26 92
-2 4 -13 32 -47 61 -76 46 -44 58 -51 74 -42 11 6 23 9 28 8 4 -2 23 14 41 35
18 20 29 37 24 37 -6 0 -9 20 -9 44 1 53 -26 89 -89 117 -57 25 -218 26 -260
0z"/>
<path d="M4616 4086 c10 -8 21 -12 24 -10 5 6 -21 24 -34 24 -6 0 -1 -6 10
-14z"/>
<path d="M2190 4045 c-31 -32 -39 -45 -27 -45 14 0 17 -10 17 -64 0 -317 153
-577 415 -707 141 -69 201 -79 493 -79 l254 0 -6 38 c-14 79 7 72 -232 72
-253 0 -331 12 -450 70 -146 71 -272 214 -324 370 -16 46 -24 99 -28 183 -4
109 -3 117 14 117 14 0 8 11 -26 45 -24 25 -47 45 -50 45 -3 0 -26 -20 -50
-45z"/>
<path d="M4500 4034 c0 -8 5 -12 10 -9 6 4 8 11 5 16 -9 14 -15 11 -15 -7z"/>
<path d="M4595 4041 c-3 -5 -1 -12 5 -16 5 -3 10 1 10 9 0 18 -6 21 -15 7z"/>
<path d="M4600 3915 c-14 -8 -20 -14 -14 -15 5 0 19 7 30 15 24 18 16 19 -16
0z"/>
<path d="M4466 3653 c-38 -8 -81 -22 -94 -31 -37 -24 -132 -148 -202 -261
l-60 -98 -66 -18 -65 -18 39 -17 c29 -13 73 -19 165 -21 149 -5 140 -12 156
129 12 105 18 116 135 231 64 63 66 64 92 50 29 -15 103 -16 130 -1 11 6 1 8
-34 4 -77 -7 -102 2 -102 38 0 34 2 34 -94 13z"/>
<path d="M4771 3646 c-22 -16 -29 -26 -19 -26 15 0 78 -69 78 -86 0 -20 -149
-281 -178 -312 l-32 -35 -120 7 c-136 8 -122 17 -135 -86 l-6 -48 160 0 c137
0 161 -2 169 -16 22 -40 103 36 204 191 76 117 118 219 125 304 5 60 3 70 -18
94 -22 25 -32 28 -109 33 -80 6 -87 4 -119 -20z"/>
<path d="M3910 3110 c0 -6 7 -10 15 -10 8 0 15 2 15 4 0 2 -7 6 -15 10 -8 3
-15 1 -15 -4z"/>
<path d="M3754 2790 c0 -74 1 -105 3 -67 2 37 2 97 0 135 -2 37 -3 6 -3 -68z"/>
<path d="M3834 2780 c0 -69 1 -97 3 -62 2 34 2 90 0 125 -2 34 -3 6 -3 -63z"/>
<path d="M4215 2579 c-66 -16 -174 -47 -241 -70 l-121 -40 -6 -217 c-4 -119
-7 -319 -7 -443 l0 -227 31 -73 c17 -41 34 -78 39 -82 4 -5 43 2 86 13 44 12
84 24 90 25 27 8 -114 566 -180 716 -6 13 5 19 55 32 35 9 66 14 70 12 3 -3 9
-35 13 -72 9 -90 47 -312 97 -568 l40 -210 100 3 c85 3 99 6 99 20 -2 178 -34
628 -53 747 -1 6 33 11 81 13 l83 3 -3 27 c-3 26 -5 27 -72 30 -39 2 -74 -2
-80 -8 -16 -16 -26 -12 -26 11 0 20 4 21 85 18 70 -3 85 -1 85 11 0 8 -5 90
-11 181 l-12 167 -36 6 c-57 9 -79 7 -206 -25z"/>
<path d="M4564 2543 c3 -27 8 -106 11 -178 3 -71 8 -147 11 -167 l6 -38 274 0
c256 0 273 1 267 18 -13 39 -31 42 -227 42 -104 0 -187 3 -184 6 3 3 34 9 67
14 34 5 82 19 107 31 62 29 74 61 74 189 0 97 -1 100 -22 100 -13 0 -95 7
-183 15 -228 21 -208 24 -201 -32z"/>
<path d="M3694 2381 c-85 -62 -100 -97 -79 -187 15 -63 120 -362 131 -373 4
-3 5 128 3 291 -2 164 -7 298 -10 298 -3 0 -24 -13 -45 -29z"/>
<path d="M1809 2159 c-14 -24 -53 -107 -88 -184 -34 -77 -73 -162 -86 -190
l-24 -50 25 30 c13 17 24 26 24 22 0 -4 12 3 26 17 25 23 32 24 118 19 50 -3
117 -8 148 -12 32 -4 62 -5 67 -2 5 4 33 65 61 136 48 122 50 131 33 144 -35
27 -199 100 -239 107 -40 6 -42 5 -65 -37z"/>
<path d="M4673 2000 c0 -41 2 -58 4 -37 2 20 2 54 0 75 -2 20 -4 3 -4 -38z"/>
<path d="M4762 1955 c0 -16 2 -22 5 -12 2 9 2 23 0 30 -3 6 -5 -1 -5 -18z"/>
<path d="M1270 1843 c-8 -2 -91 -11 -184 -21 l-169 -17 87 -79 86 -78 0 -294
0 -294 190 0 190 0 0 293 1 292 52 35 c88 59 88 63 -6 81 -77 15 -83 15 -107
-2 l-25 -18 -50 53 c-28 30 -57 52 -65 49z"/>
<path d="M2068 1793 c17 -2 47 -2 65 0 17 2 3 4 -33 4 -36 0 -50 -2 -32 -4z"/>
<path d="M2189 1781 c9 -6 10 -11 2 -15 -6 -4 -16 -16 -22 -28 -16 -29 5 -15
31 22 l21 30 -23 0 c-17 0 -19 -3 -9 -9z"/>
<path d="M2120 1689 c0 -5 5 -7 10 -4 6 3 10 8 10 11 0 2 -4 4 -10 4 -5 0 -10
-5 -10 -11z"/>
<path d="M1963 1310 c-36 -15 -55 -53 -47 -94 8 -44 14 -49 59 -40 30 5 35 10
35 34 0 20 6 31 20 35 23 7 24 13 10 49 -10 28 -35 33 -77 16z"/>
<path d="M2130 1252 c-14 -14 -18 -21 -9 -14 8 6 26 15 39 20 16 6 19 10 9 14
-8 3 -25 -6 -39 -20z"/>
<path d="M4061 1243 c-24 -9 -58 -30 -75 -48 -18 -18 -46 -40 -64 -49 -19 -10
-32 -23 -29 -29 7 -21 60 -18 167 12 115 31 118 35 91 104 -12 31 -26 32 -90
10z"/>
<path d="M2162 1231 c-18 -9 -30 -19 -27 -23 9 -9 24 -68 17 -66 -4 1 -17 -1
-29 -5 -18 -7 -20 -12 -13 -37 4 -16 6 -31 2 -34 -12 -13 61 -5 88 9 47 24 53
101 12 152 -17 21 -18 21 -50 4z m68 -77 c0 -8 -4 -14 -8 -14 -4 0 -8 9 -8 19
0 11 4 17 8 15 4 -3 8 -12 8 -20z m-70 -34 c0 -5 -9 -10 -20 -10 -11 0 -20 5
-20 10 0 6 9 10 20 10 11 0 20 -4 20 -10z"/>
<path d="M1983 1158 c-13 -6 -23 -15 -23 -20 0 -13 10 -10 37 12 28 22 21 25
-14 8z"/>
<path d="M4220 1145 c-19 -14 -50 -30 -70 -36 -49 -16 -59 -27 -36 -44 14 -11
45 -13 140 -8 66 3 124 9 129 12 4 4 4 28 1 54 l-7 47 -61 0 c-48 -1 -68 -6
-96 -25z"/>
</g>
</svg>
